<?xml version="1.0" encoding="iso-8859-1"?>
<!-- Uploaded to: SVG Repo, www.svgrepo.com, Generator: SVG Repo Mixer Tools -->
<svg xmlns="http://www.w3.org/2000/svg" xmlns:xlink="http://www.w3.org/1999/xlink" version="1.1" id="Layer_1"  viewBox="0 0 377.982 377.982" xml:space="preserve" width="512" height="512">
<g>
	<polygon style="fill:#CCCCCC;" points="377.982,34.749 377.982,23.749 15,23.749 15,9.75 0,9.75 0,368.232 15,368.232 15,348.233    377.982,348.233 377.982,337.233 15,337.233 15,285.536 377.982,285.536 377.982,274.536 15,274.536 15,222.839 377.982,222.839    377.982,211.839 15,211.839 15,160.143 377.982,160.143 377.982,149.143 15,149.143 15,97.446 377.982,97.446 377.982,86.446    15,86.446 15,34.749  "/>
	<path style="fill:#4288BC;" d="M296.346,265.49v102.742H89.136V265.49c0-34.72,21.9-64.31,52.64-75.74c0.01-0.01,0.01,0,0.01,0   c13.87,16.69,88.04,16.69,101.92-0.01C274.436,201.19,296.346,230.76,296.346,265.49z"/>
	<path style="fill:#3679A3;" d="M152.306,196.38c-14.6,14.16-24.36,39.81-24.36,69.11v102.742h-38.81V265.49   c0-34.72,21.9-64.31,52.64-75.74h0.01C143.966,192.37,147.626,194.58,152.306,196.38z"/>
	<path style="fill:#EFC197;" d="M243.706,189.74c-13.88,16.7-31.62,28.23-50.96,28.23s-37.09-11.53-50.96-28.22   c-17.98-21.63-29.46-51.93-29.46-77c0-44.41,36.01-80.41,80.42-80.41c44.4,0,80.41,36,80.41,80.41   C273.156,137.82,261.686,168.11,243.706,189.74z"/>
	<path style="fill:#D8AB87;" d="M192.746,217.97c-19.34,0-37.09-11.53-50.96-28.22c-17.98-21.63-29.46-51.93-29.46-77   c0-44.41,36.01-80.41,80.42-80.41c-23.01,0-41.66,36-41.66,80.41c0,25.07,5.95,55.37,15.26,77   C173.536,206.44,182.726,217.97,192.746,217.97z"/>
	<rect x="127.498" y="265.9" style="fill:#E6E6E6;" width="130.493" height="87.072"/>
	<g>
		<rect x="161.247" y="290.437" style="fill:#808080;" width="62.997" height="11"/>
		<rect x="161.247" y="317.435" style="fill:#808080;" width="62.997" height="11"/>
	</g>
	<g>
		<path style="fill:#EFC197;" d="M126.248,291.26L126.248,291.26c-11.326,0-20.507,9.181-20.507,20.507v30.966h20.507    c8.556,0,15.493-6.936,15.493-15.493v-20.488C141.741,298.196,134.805,291.26,126.248,291.26z"/>
		<path style="fill:#EFC197;" d="M259.233,291.26L259.233,291.26c11.326,0,20.507,9.181,20.507,20.507v30.966h-20.507    c-8.556,0-15.493-6.936-15.493-15.493v-20.488C243.741,298.196,250.677,291.26,259.233,291.26z"/>
	</g>
</g>















</svg>