<?xml version="1.0" encoding="iso-8859-1"?>
<!-- Uploaded to: SVG Repo, www.svgrepo.com, Generator: SVG Repo Mixer Tools -->
<svg height="800px" width="800px" version="1.1" id="Layer_1" xmlns="http://www.w3.org/2000/svg" xmlns:xlink="http://www.w3.org/1999/xlink" 
	 viewBox="0 0 511.883 511.883" xml:space="preserve">
<path style="fill:#A0D468;" d="M213.279,415.888c-54.128,0-105.007-21.073-143.28-59.33
	c-38.272-38.272-59.346-89.167-59.346-143.279c0-54.129,21.073-105.008,59.346-143.28s89.151-59.346,143.28-59.346
	c54.113,0,105.007,21.073,143.28,59.346c38.257,38.272,59.346,89.151,59.346,143.28c0,54.112-21.089,105.007-59.346,143.279
	c-38.272,38.257-89.151,59.33-143.264,59.33L213.279,415.888L213.279,415.888z"/>
<g>
	<path style="fill:#434A54;" d="M507.384,492.527L371.337,356.48c75.967-83.716,73.561-213.217-7.249-294.026
		C322.442,20.807,267.861,0,213.279,0S104.117,20.807,62.47,62.454c-83.293,83.293-83.293,218.341,0,301.634
		c41.631,41.646,96.228,62.471,150.81,62.471c51.222,0,102.445-18.324,142.967-55.004l137.312,137.312l0.109-0.109
		c1.938,1.922,4.594,3.125,7.546,3.125c5.89,0,10.669-4.78,10.669-10.67C511.882,497.62,510.102,494.464,507.384,492.527z
		 M213.279,405.235c-24.932,0-49.239-4.733-72.249-14.06c-23.792-9.654-45.162-23.839-63.486-42.162
		c-18.324-18.34-32.523-39.694-42.162-63.485c-9.326-23.011-14.059-47.317-14.059-72.249c0-24.948,4.733-49.255,14.059-72.249
		c9.639-23.792,23.838-45.162,42.162-63.486c18.324-18.339,39.694-32.523,63.486-42.178c22.995-9.311,47.301-14.043,72.249-14.043
		c24.932,0,49.239,4.732,72.25,14.043c23.791,9.654,45.146,23.839,63.484,42.178c18.324,18.324,32.509,39.694,42.162,63.486
		c9.326,22.994,14.061,47.301,14.061,72.249c0,24.932-4.734,49.238-14.061,72.249c-9.653,23.791-23.838,45.146-42.162,63.485
		c-18.339,18.323-39.693,32.523-63.484,42.162C262.534,400.502,238.227,405.235,213.279,405.235z"/>
	<path style="fill:#434A54;" d="M260.269,243.927l-36.258-36.226v-69.078h42.662c5.873,0,10.654-4.78,10.654-10.653
		c0-5.905-4.781-10.67-10.654-10.67h-42.662V95.977h-0.078c0-5.905-4.78-10.669-10.669-10.669s-10.669,4.764-10.669,10.669
		c0,0.422,0.031,0.828,0.094,1.25V117.3h-6.905c-30.118,0-39.913,12.794-43.084,20.417c-7.357,17.777,6.889,35.758,16.043,44.896
		l33.945,33.93v71.39h-42.662c-5.889,0-10.669,4.765-10.669,10.653c0,5.89,4.78,10.67,10.669,10.67h42.662v21.323
		c0,5.89,4.765,10.669,10.654,10.669s10.669-4.779,10.669-10.669v-21.323h9.201c30.133,0,39.928-12.794,43.084-20.433
		C283.654,271.062,269.407,253.066,260.269,243.927z M183.817,167.539c-9.951-9.95-12.903-18.042-11.404-21.651
		c2.078-5.014,13.231-7.264,23.37-7.264h6.905v47.771L183.817,167.539z M256.582,280.67c-2.062,5.015-13.231,7.264-23.37,7.264
		h-9.201v-50.083l21.167,21.167C255.144,268.969,258.082,277.061,256.582,280.67z"/>
</g>
</svg>